<?xml version="1.0" encoding="UTF-8" standalone="no"?>
<!-- Generator: Adobe Illustrator 18.1.0, SVG Export Plug-In . SVG Version: 6.00 Build 0)  -->

<svg
   xmlns:dc="http://purl.org/dc/elements/1.1/"
   xmlns:cc="http://creativecommons.org/ns#"
   xmlns:rdf="http://www.w3.org/1999/02/22-rdf-syntax-ns#"
   xmlns:svg="http://www.w3.org/2000/svg"
   xmlns="http://www.w3.org/2000/svg"
   xmlns:sodipodi="http://sodipodi.sourceforge.net/DTD/sodipodi-0.dtd"
   xmlns:inkscape="http://www.inkscape.org/namespaces/inkscape"
   version="1.1"
   id="Layer_1"
   x="0px"
   y="0px"
   viewBox="0 0 413.8 266"
   enable-background="new 0 0 421.8 266"
   xml:space="preserve"
   inkscape:version="0.91 r13725"
   sodipodi:docname="icofff.svg"
   width="413.79999"
   height="266"><metadata
     id="metadata42"><rdf:RDF><cc:Work
         rdf:about=""><dc:format>image/svg+xml</dc:format><dc:type
           rdf:resource="http://purl.org/dc/dcmitype/StillImage" /><dc:title></dc:title></cc:Work></rdf:RDF></metadata><defs
     id="defs40" /><sodipodi:namedview
     pagecolor="#ffffff"
     bordercolor="#666666"
     borderopacity="1"
     objecttolerance="10"
     gridtolerance="10"
     guidetolerance="10"
     inkscape:pageopacity="0"
     inkscape:pageshadow="2"
     inkscape:window-width="1867"
     inkscape:window-height="1056"
     id="namedview38"
     showgrid="false"
     inkscape:zoom="1.5647227"
     inkscape:cx="188.25692"
     inkscape:cy="133.69845"
     inkscape:window-x="53"
     inkscape:window-y="24"
     inkscape:window-maximized="1"
     inkscape:current-layer="Isotipo" /><g
     id="Isotipo"><g
       id="g4"
       transform="matrix(1.8067101,0,0,1.8067101,-176.57747,0.03798336)"><path
         d="M 311.6,32.2 C 271.6,-18 211.9,5.4 211.9,5.4 l 0,43.4 c 0,0 7.6,-6.9 21.2,-10.4 13.4,-3.5 53.1,-4.7 62.3,32.4 7.7,31.1 -12.3,56.1 -36.2,54.3 -22.6,-1.7 -26.8,-18.3 -26.8,-18.3 -2.3,-14.9 12.8,-17.3 18.7,-12.1 5,4.4 5,9.8 2.9,14.1 -1.8,3.6 5.3,1.1 9.7,-7.4 4.6,-8.8 -3.2,-15.6 -3.2,-15.6 0,0 -0.6,-5 -4.7,-8.8 -7.2,-6.7 -16.9,-6.8 -22.4,-5.5 -11.8,2.8 -16.8,10.2 -19.6,16.5 -4.5,10.3 -0.5,22.3 -0.5,22.3 0,0 11.1,39.3 56.7,36.9 54.3,-2.8 72.1,-76.7 41.6,-115 z"
         id="path6"
         style="fill:#ffffff"
         inkscape:connector-curvature="0" /><g
         id="g8"
         style="fill:#ffffff"><path
           d="m 218.2,90.4 c 0.3,0.1 0.7,-0.1 0.8,-0.5 3,-8.6 11.2,-14.9 20.8,-14.9 1.1,0 2.1,0.1 3.1,0.2 0.4,0.1 0.7,-0.2 0.8,-0.6 l 0,0 c 0,-0.4 -0.2,-0.7 -0.6,-0.8 -1.1,-0.2 -2.2,-0.2 -3.3,-0.2 -10.3,0 -19,6.6 -22.2,15.8 -0.1,0.5 0.2,0.9 0.6,1 l 0,0 z"
           id="path10"
           style="fill:#ffffff"
           inkscape:connector-curvature="0" /><path
           d="m 224.4,85.8 c 2.8,-3.9 7,-6.7 11.9,-7.7 0.3,-0.1 0.5,-0.3 0.5,-0.6 l 0,0 c 0,-0.4 -0.4,-0.7 -0.8,-0.6 -5.2,1 -9.7,4.1 -12.7,8.2 -0.2,0.3 -0.1,0.7 0.2,0.9 l 0,0 c 0.4,0.1 0.7,0.1 0.9,-0.2 z"
           id="path12"
           style="fill:#ffffff"
           inkscape:connector-curvature="0" /></g><path
         d="M 112.2,32.2 C 152.2,-18 211.9,5.4 211.9,5.4 l 0,43.4 c 0,0 -7.6,-6.9 -21.2,-10.4 -13.4,-3.5 -53.1,-4.7 -62.3,32.4 -7.7,31.1 12.3,56.1 36.2,54.3 22.6,-1.7 26.8,-18.3 26.8,-18.3 2.3,-14.9 -12.8,-17.3 -18.7,-12.1 -5,4.4 -5,9.8 -2.9,14.1 1.8,3.6 -5.3,1.1 -9.7,-7.4 -4.6,-8.8 3.2,-15.6 3.2,-15.6 0,0 0.6,-5 4.7,-8.8 7.2,-6.7 16.9,-6.8 22.4,-5.5 11.8,2.8 16.8,10.2 19.6,16.5 4.5,10.3 0.5,22.3 0.5,22.3 0,0 -11.1,39.3 -56.7,36.9 -54.3,-2.8 -72,-76.7 -41.6,-115 z"
         id="path14"
         style="fill:#ffffff"
         inkscape:connector-curvature="0" /><g
         id="g16"
         style="fill:#ffffff"><path
           d="m 205.6,90.4 c -0.3,0.1 -0.7,-0.1 -0.8,-0.5 C 201.8,81.3 193.6,75 184,75 c -1.1,0 -2.1,0.1 -3.1,0.2 -0.4,0.1 -0.7,-0.2 -0.8,-0.6 l 0,0 c 0,-0.4 0.2,-0.7 0.6,-0.8 1.1,-0.2 2.2,-0.2 3.3,-0.2 10.3,0 19,6.6 22.2,15.8 0.1,0.5 -0.1,0.9 -0.6,1 l 0,0 z"
           id="path18"
           style="fill:#ffffff"
           inkscape:connector-curvature="0" /><path
           d="m 199.5,85.8 c -2.8,-3.9 -7,-6.7 -11.9,-7.7 -0.3,-0.1 -0.5,-0.3 -0.5,-0.6 l 0,0 c 0,-0.4 0.4,-0.7 0.8,-0.6 5.2,1 9.7,4.1 12.7,8.2 0.2,0.3 0.1,0.7 -0.2,0.9 l 0,0 c -0.4,0.1 -0.8,0.1 -0.9,-0.2 z"
           id="path20"
           style="fill:#ffffff"
           inkscape:connector-curvature="0" /></g></g></g></svg>