<?xml version="1.0" encoding="UTF-8" standalone="no"?>
<svg width="333px" height="52px" viewBox="0 0 333 52" version="1.1" xmlns="http://www.w3.org/2000/svg" xmlns:xlink="http://www.w3.org/1999/xlink">
    <!-- Generator: Sketch 3.8.3 (29802) - http://www.bohemiancoding.com/sketch -->
    <title>Page 1</title>
    <desc>Created with Sketch.</desc>
    <defs></defs>
    <g id="Home" stroke="none" stroke-width="1" fill="none" fill-rule="evenodd">
        <g id="home_menu_desktop_HD" transform="translate(-241.000000, -5269.000000)">
            <g id="About" transform="translate(0.000000, 4971.000000)">
                <g id="bg-+-Bitmap-Copy" transform="translate(209.000000, 139.000000)">
                    <g id="Group-3">
                        <g id="Page-1" transform="translate(32.000000, 159.000000)">
                            <path d="M22.6272619,46.8361356 L24.032381,48.7874576 L28.8353333,48.3141695 C28.8732143,45.9486102 29.8845476,42.9202712 30.3126905,42.0521356 C27.6116905,42.3597288 24.3900476,40.9627797 21.8361667,41.4977627 C21.1305238,46.1284068 17.5441667,47.0423729 15.8580238,46.7885424 L14.6537619,48.8703051 L15.4915476,49.6370847 L21.3595714,49.0571525 C20.9886905,48.4349153 20.3077143,47.3332203 19.7007381,46.5823051 C20.6997381,45.9107119 21.9753571,44.6089492 22.4898333,42.1781695 C23.5945476,42.0662373 24.8419762,42.2733559 26.1607619,42.496339 L26.3572143,42.5263051 C26.1378571,44.1189153 24.8358095,46.1583729 22.6272619,46.8361356 L22.6272619,46.8361356 Z M11.7245952,50.0054915 C11.7184286,49.7957288 11.672619,49.5471864 11.5316667,49.3259661 C11.5316667,49.3259661 12.8654286,47.3261695 13.7710476,44.6397966 C14.4995952,44.9667797 16.040381,44.3489492 16.1046905,42.692 C16.1707619,41.0376949 15.8915,38.4650169 17.3204048,36.504 C18.7475476,34.5368136 20.2856905,33.4721356 22.2977857,31.915661 C23.6033571,30.9056271 25.8180714,29.2010847 27.2099762,28.1267119 L26.5193095,27.9213559 L21.5075714,31.7764068 L19.7553571,31.7764068 L24.8208333,27.4172203 L24.1671667,27.220678 L18.8735238,31.7799322 L17.0966429,31.7799322 L22.3339048,26.6795254 L21.7049048,26.4909153 L16.2720714,31.7799322 L14.4564286,31.7799322 L19.721881,25.9021695 L19.111381,25.7223729 L13.6847143,31.7799322 L11.7756905,31.7799322 L16.8852143,25.0569492 L16.297619,24.8868475 L11.0541905,31.7799322 L9.33104762,31.7799322 C9.33104762,31.7799322 16.6931667,20.1574915 18.1432143,17.8853559 C19.5932619,15.6132203 21.164,13.6178305 23.7566429,13.1709831 C26.3774762,12.7206102 28.1640476,13.416 29.4458333,15.5947119 C30.1382619,16.7651525 30.969,18.1515254 31.6270714,19.2338305 C30.9610714,20.3390508 30.1259286,21.2212881 30.0466429,22.5494915 C29.952381,24.076 30.9531429,25.0137627 31.9600714,25.0869153 C31.2006905,24.8119322 30.6034048,23.8935593 30.8738571,22.6658305 C31.1557619,21.399322 32.1371429,20.7576949 32.8824286,19.7309153 C33.5246429,18.8460339 33.5325714,17.548678 33.484119,17.1185763 C33.4374286,16.6805424 32.9643571,16.3482712 32.9643571,16.3482712 C32.9643571,16.3482712 32.9784524,15.4810169 32.9643571,14.5344407 C32.9458571,13.5905085 33.3440476,13.0440678 33.3440476,13.0440678 C33.3440476,13.0440678 33.3325952,11.6330169 33.2788571,9.98135593 C33.2339286,8.39138983 33.0859286,7.91369492 32.9414524,7.70128814 C32.9414524,7.70128814 33.0559762,7.24474576 33.484119,6.75030508 L33.9219524,7.15572881 L34.0532143,6.24528814 C34.3315952,6.05050847 34.6654762,5.87511864 35.0856905,5.74908475 L35.2204762,5.71294915 L35.7719524,6.37925424 L36.1093571,5.53932203 C36.6150238,5.48820339 37.0528571,5.5199322 37.4193333,5.60189831 L37.7259048,6.4779661 L38.1179286,5.84867797 C38.4192143,6.01172881 38.6095,6.19769492 38.6623571,6.34311864 C38.6623571,6.34311864 38.5830714,6.8719322 38.7134524,7.72155932 C38.8350238,8.54122034 39.1891667,10.3673898 39.1891667,10.3673898 C39.6798571,10.7842712 40.2392619,11.7299661 40.2392619,11.7299661 C40.5784286,13.4204068 40.5546429,14.7345085 40.5546429,14.7345085 L39.9265238,15.34 L40.3317619,16.7995254 L39.8075952,17.4746441 L40.2974048,18.019322 C40.33,18.6618305 40.1150476,19.304339 40.1150476,19.304339 C41.1387143,19.9776949 41.4285476,21.5905763 42.0672381,24.3060339 C42.7103333,27.027661 43.2829524,29.2654237 43.2829524,29.2654237 L42.328,29.8171525 C43.5904048,34.5315254 42.3068571,38.2869831 40.6850238,40.7635932 C39.0649524,43.2419661 38.090619,45.7027119 38.1214524,47.8999322 L38.9143095,48.5424407 L39.3257143,49.4775593 L54.6287381,51.9629831 C55.147619,49.1250169 56.4311667,40.8208814 56.4311667,28.5004068 C56.4311667,13.0969492 54.4173095,3.95816949 54.4173095,3.95816949 C54.0605238,2.95871186 53.3892381,2.25010169 52.5135714,2.03416949 C52.5135714,2.03416949 43.4996667,0 28.2142619,0 C12.9279762,0 3.91407143,2.03416949 3.91407143,2.03416949 C3.2912381,2.15050847 2.30104762,2.93491525 2.01385714,3.94847458 C2.01385714,3.94847458 0,13.4521356 0,28.4898305 C0,39.4944407 1.07828571,47.5324068 1.65530952,51.0534237 L11.7245952,50.0054915 L11.7245952,50.0054915 Z M35.759619,38.9911864 C35.6080952,39.3402034 35.4495238,39.6848136 35.2812619,40.0144407 C34.1421905,42.2830508 32.8868333,43.7311186 32.1389048,46.9842034 L32.9185476,47.6187797 L33.2559524,48.4613559 L34.8839524,48.7310508 C34.854,45.4832542 36.0133333,42.7457627 36.0133333,42.7457627 C36.6652381,42.5844746 37.3285952,42.055661 37.3285952,42.055661 C36.2829048,42.2768814 34.9773333,42.1155932 34.9773333,42.1155932 C35.9129048,40.3572881 36.2071429,39.0925424 36.2071429,39.0925424 L35.759619,38.9911864 Z" id="Fill-1" fill="#00F0DB"></path>
                            <path d="M301.361476,9.94522034 C301.361476,8.29355932 301.416095,7.19010169 301.690952,6.94067797 C301.96581,6.71945763 303.37269,6.58284746 305.136357,6.58284746 C307.039214,6.58284746 308.581762,6.74766102 308.831952,6.94067797 C309.078619,7.18922034 309.131476,8.40020339 309.131476,9.94522034 L309.131476,25.9682712 C309.131476,31.1277288 309.905833,36.3136271 310.483738,37.1121356 C310.981476,37.7731525 313.351238,38.2182373 316.93231,38.2182373 C320.464929,38.2182373 323.165929,37.6101017 323.715643,37.0839322 C324.543738,36.2034576 324.983333,31.016678 324.983333,25.9691525 L324.983333,9.94345763 C324.983333,8.42928814 325.038833,7.18833898 325.314571,6.93891525 C325.561238,6.74501695 327.16281,6.58108475 328.982857,6.58108475 C330.831095,6.58108475 332.153405,6.74589831 332.425619,6.93891525 C332.73131,7.18745763 332.7595,8.29179661 332.7595,9.94345763 L332.7595,26.7967458 C332.7595,35.1537627 331.514714,42.5730169 330.551833,43.5381017 C329.7255,44.3392542 325.370952,45.6886102 317.292619,45.6886102 C308.964095,45.6886102 304.391952,44.4467797 303.591167,43.5610169 C302.624762,42.4884068 301.359714,35.0400678 301.359714,26.7932203 L301.359714,9.94522034 L301.361476,9.94522034 L301.361476,9.94522034 Z M266.48369,40.3934237 C266.758548,38.9347797 267.200786,37.4452881 267.450095,37.3888814 C267.749619,37.3007458 273.73481,38.5452203 279.770214,38.5452203 C283.298429,38.5452203 286.16769,38.2173559 286.692738,37.7484746 C287.132333,37.3351186 287.35081,35.7601356 287.35081,34.191322 C287.35081,32.8402034 287.186071,31.7376271 286.800214,31.3489492 C286.248738,30.7972203 281.343595,29.7210847 276.849857,28.3972881 C271.061119,26.7447458 268.468476,25.752339 267.805119,24.9820339 C267.090667,24.1253559 266.398238,20.2112542 266.398238,16.731661 C266.398238,12.7620339 267.004333,9.14847458 267.720548,8.34820339 C268.468476,7.52061017 272.545524,6.08664407 280.153429,6.08664407 C288.121643,6.08664407 292.838262,7.71538983 293.028548,8.01681356 C293.138667,8.21335593 292.999476,9.72840678 292.721976,10.9138305 C292.447119,12.2085424 291.895643,14.0021017 291.456929,14.0021017 C291.071071,14.0294237 285.860238,12.7056271 281.088119,12.7056271 C277.255976,12.7056271 274.637786,13.2555932 274.19731,13.6425085 C273.836119,13.9721356 273.645833,15.1575593 273.645833,17.1168136 C273.645833,18.4696949 273.780619,19.4321356 274.165595,19.7661695 C274.745262,20.2324068 276.591738,20.6766102 282.215738,22.0806102 C287.452119,23.375322 292.499095,25.088678 293.214429,25.8607458 C294.015214,26.7703051 294.483881,31.7658305 294.483881,34.3261695 C294.483881,38.1336271 293.654024,42.7942373 292.855881,43.5962712 C292.276214,44.172678 287.174619,45.6912542 279.016119,45.6912542 C272.649476,45.6912542 266.473119,44.1444746 266.27931,43.8976949 C266.126905,43.7029153 266.207952,41.912 266.48369,40.3934237 L266.48369,40.3934237 Z M232.052548,40.3934237 C232.324762,38.9347797 232.767,37.4452881 233.015429,37.3888814 C233.319357,37.3007458 239.301905,38.5452203 245.33731,38.5452203 C248.866405,38.5452203 251.731262,38.2173559 252.259833,37.7484746 C252.699429,37.3351186 252.917905,35.7601356 252.917905,34.191322 C252.917905,32.8402034 252.753167,31.7376271 252.36731,31.3489492 C251.81231,30.7972203 246.908929,29.7210847 242.413429,28.3972881 C236.628214,26.7447458 234.030286,25.752339 233.372214,24.9820339 C232.656881,24.1253559 231.967095,20.2112542 231.967095,16.731661 C231.967095,12.7620339 232.57319,9.14847458 233.289405,8.34820339 C234.030286,7.52061017 238.112619,6.08664407 245.718762,6.08664407 C253.686976,6.08664407 258.400952,7.71538983 258.593881,8.01681356 C258.702238,8.21335593 258.566571,9.72840678 258.290833,10.9138305 C258.015976,12.2085424 257.4645,14.0021017 257.023143,14.0021017 C256.637286,14.0294237 251.426452,12.7056271 246.656095,12.7056271 C242.823952,12.7056271 240.204881,13.2555932 239.765286,13.6425085 C239.404095,13.9721356 239.211167,15.1575593 239.211167,17.1168136 C239.211167,18.4696949 239.348595,19.4321356 239.737095,19.7661695 C240.313238,20.2324068 242.162357,20.6766102 247.789,22.0806102 C253.021857,23.375322 258.069714,25.088678 258.783286,25.8607458 C259.58319,26.7703051 260.051857,31.7658305 260.051857,34.3261695 C260.051857,38.1336271 259.225524,42.7942373 258.423857,43.5962712 C257.847714,44.172678 252.748762,45.6912542 244.591143,45.6912542 C238.216571,45.6912542 232.047262,44.1444746 231.853452,43.8976949 C231.693119,43.7029153 231.773286,41.912 232.052548,40.3934237 L232.052548,40.3934237 Z M213.852952,26.2194576 C214.900405,26.2194576 215.946095,26.0528814 216.029786,25.9435932 C216.110833,25.8607458 216.278214,24.7846102 216.278214,23.6529492 C216.278214,19.3237288 215.781357,14.3581695 215.040476,13.6698305 C214.486357,13.1745085 212.063738,12.5663729 208.701143,12.5663729 C205.255738,12.5663729 202.910643,13.2273898 202.382952,13.6698305 C201.610357,14.3026441 201.14169,19.3237288 201.14169,23.6273898 C201.14169,24.8410169 201.310833,25.8607458 201.391881,25.9435932 C201.47381,26.0264407 202.522143,26.2194576 203.567833,26.2194576 L213.852952,26.2194576 Z M193.151452,26.492678 C193.123262,16.4275932 194.472881,9.28244068 195.437524,8.20983051 C196.207476,7.35227119 200.812214,6.08488136 208.532881,6.08488136 C216.553952,6.08488136 221.21419,7.40955932 222.010571,8.26271186 C222.950548,9.22867797 224.272857,16.4822373 224.272857,26.492678 L224.272857,41.8282712 C224.272857,43.2895593 224.219119,44.640678 223.97069,44.836339 C223.722262,45.0293559 221.957714,45.1941695 220.248667,45.1941695 C218.564286,45.1941695 216.882548,45.0284746 216.635,44.836339 C216.331071,44.6142373 216.27469,43.4834576 216.27469,41.8282712 L216.27469,35.0435932 C216.27469,33.9947797 216.10819,32.9724068 216.028024,32.8631186 C215.943452,32.7837966 214.900405,32.6181017 213.85031,32.6181017 L203.566071,32.6181017 C202.5195,32.6181017 201.472048,32.7538305 201.390119,32.8631186 C201.30731,32.9724068 201.139929,34.0238644 201.139929,35.0435932 L201.139929,41.8282712 C201.139929,43.2613559 201.087071,44.640678 200.806929,44.836339 C200.562024,45.0293559 198.824786,45.1941695 197.114857,45.1941695 C195.434881,45.1941695 193.726714,45.0284746 193.474762,44.836339 C193.199905,44.640678 193.147048,43.4587797 193.147048,41.8282712 L193.147048,26.492678 L193.151452,26.492678 L193.151452,26.492678 Z M146.525286,9.67288136 C146.690905,7.96128814 147.051214,7.10637288 147.274095,6.94067797 C147.626476,6.66569492 149.589238,6.58284746 150.856929,6.58284746 C152.484929,6.58284746 154.190452,6.71945763 154.549881,6.96711864 C154.824738,7.16013559 155.185929,7.79471186 155.92681,9.20047458 L164.832357,27.2938305 C164.996214,27.5661695 165.215571,27.5943729 165.383833,27.2938305 L174.234762,9.22779661 C174.975643,7.85023729 175.3615,7.18745763 175.637238,6.99267797 C176.023095,6.71681356 177.563,6.58108475 179.054452,6.58108475 C180.354738,6.58108475 182.117524,6.69213559 182.499857,6.93891525 C182.665476,7.07464407 183.053095,7.79383051 183.246024,9.724 L186.607738,42.5730169 C186.746929,43.7020339 186.800667,44.4485424 186.63681,44.6688814 C186.442119,44.8874576 185.061667,45.3025763 182.775595,45.5528814 C181.644452,45.6604068 180.732667,45.6886102 180.074595,45.6886102 C179.519595,45.6886102 179.165452,45.604 179.054452,45.4947119 C178.887071,45.3290169 178.750524,44.5031864 178.639524,43.068339 L176.73931,19.8454915 C176.714643,19.4894237 176.357857,19.4065763 176.188714,19.735322 L168.250452,36.0950508 C168.113024,36.3136271 167.728048,37.0037288 167.558905,37.0812881 C167.365095,37.2205424 165.796119,37.3597966 164.638548,37.3597966 C163.453667,37.3597966 162.212405,37.2205424 161.937548,37.0539661 C161.771929,36.9711186 161.43981,36.4775593 161.220452,36.060678 L153.667167,20.0094237 C153.50331,19.6762712 153.172071,19.7635254 153.144762,20.0658305 L151.023429,43.1785085 C150.910667,44.4168136 150.773238,45.3581017 150.582071,45.5511186 C150.496619,45.6586441 150.056143,45.6868475 149.4245,45.6868475 C148.818405,45.6868475 148.016738,45.6322034 147.132262,45.5511186 C145.645214,45.3845424 143.796095,44.9456271 143.549429,44.6697627 C143.358262,44.4467797 143.437548,43.4023729 143.549429,42.2433898 L146.525286,9.67288136 L146.525286,9.67288136 Z M126.676548,26.2194576 C127.724,26.2194576 128.773214,26.0528814 128.854262,25.9435932 C128.93619,25.8607458 129.100929,24.7846102 129.100929,23.6529492 C129.100929,19.3237288 128.604071,14.3581695 127.86231,13.6698305 C127.311714,13.1745085 124.885571,12.5663729 121.522976,12.5663729 C118.074048,12.5663729 115.731595,13.2273898 115.20919,13.6698305 C114.434833,14.3026441 113.970571,19.3237288 113.970571,23.6273898 C113.970571,24.8410169 114.13619,25.8607458 114.218119,25.9435932 C114.299167,26.0264407 115.348381,26.2194576 116.394071,26.2194576 L126.676548,26.2194576 Z M105.974167,26.492678 C105.944214,16.4275932 107.297357,9.28244068 108.266405,8.20983051 C109.032833,7.35227119 113.63669,6.08488136 121.356476,6.08488136 C129.377548,6.08488136 134.038667,7.40955932 134.83769,8.26271186 C135.774143,9.22867797 137.097333,16.4822373 137.097333,26.492678 L137.097333,41.8282712 C137.097333,43.2895593 137.041833,44.640678 136.793405,44.836339 C136.545857,45.0293559 134.78219,45.1941695 133.072262,45.1941695 C131.391405,45.1941695 129.71231,45.0284746 129.461238,44.836339 C129.15819,44.6142373 129.10181,43.4834576 129.10181,41.8282712 L129.10181,35.0435932 C129.10181,33.9947797 128.93619,32.9724068 128.855143,32.8631186 C128.774095,32.7837966 127.724,32.6181017 126.677429,32.6181017 L116.394952,32.6181017 C115.349262,32.6181017 114.30269,32.7538305 114.219,32.8631186 C114.137952,32.9724068 113.971452,34.0238644 113.971452,35.0435932 L113.971452,41.8282712 C113.971452,43.2613559 113.915071,44.640678 113.637571,44.836339 C113.391786,45.0293559 111.653667,45.1941695 109.944619,45.1941695 C108.266405,45.1941695 106.554714,45.0284746 106.303643,44.836339 C106.028786,44.640678 105.974167,43.4587797 105.974167,41.8282712 L105.974167,26.492678 L105.974167,26.492678 Z M74.9857857,9.94522034 C74.9857857,8.48569492 75.0421667,7.13457627 75.2870714,6.94067797 C75.591881,6.71945763 77.4101667,6.58284746 79.0901429,6.58284746 C80.8555714,6.58284746 82.510881,6.74766102 82.8148095,6.94067797 C83.1178571,7.16013559 83.1451667,8.32 83.1451667,9.94522034 L83.1451667,36.3145085 C83.1451667,36.8089492 83.2570476,37.5246102 83.3953571,37.6638644 C83.5583333,37.828678 84.305381,37.9141695 84.7696429,37.9141695 L97.3417143,37.9141695 C98.1680476,37.9141695 99.5440952,37.9141695 99.7123571,38.1327458 C99.8480238,38.3539661 99.9854524,40.2294915 99.9854524,41.6079322 C99.9854524,42.9854915 99.8489048,44.6970847 99.7123571,44.9183051 C99.5440952,45.1404068 98.6349524,45.1941695 97.3417143,45.1941695 L78.7069286,45.1941695 C77.384619,45.1941695 75.867619,44.9473898 75.5390238,44.640678 C75.2077857,44.3383729 74.9866667,42.7651525 74.9866667,41.4677966 L74.9866667,9.94522034 L74.9857857,9.94522034 L74.9857857,9.94522034 Z" id="Fill-3" fill="#FFFFFF"></path>
                        </g>
                    </g>
                </g>
            </g>
        </g>
    </g>
</svg>