<?xml version="1.0" encoding="UTF-8" standalone="no"?>
<!-- Generator: Adobe Illustrator 18.1.0, SVG Export Plug-In . SVG Version: 6.00 Build 0)  -->

<svg
   xmlns:dc="http://purl.org/dc/elements/1.1/"
   xmlns:cc="http://creativecommons.org/ns#"
   xmlns:rdf="http://www.w3.org/1999/02/22-rdf-syntax-ns#"
   xmlns:svg="http://www.w3.org/2000/svg"
   xmlns="http://www.w3.org/2000/svg"
   xmlns:sodipodi="http://sodipodi.sourceforge.net/DTD/sodipodi-0.dtd"
   xmlns:inkscape="http://www.inkscape.org/namespaces/inkscape"
   version="1.1"
   id="Layer_1"
   x="0px"
   y="0px"
   viewBox="0 0 421.8 119"
   enable-background="new 0 0 421.8 266"
   xml:space="preserve"
   inkscape:version="0.91 r13725"
   sodipodi:docname="logotipo.svg"
   width="421.79999"
   height="119"><metadata
     id="metadata42"><rdf:RDF><cc:Work
         rdf:about=""><dc:format>image/svg+xml</dc:format><dc:type
           rdf:resource="http://purl.org/dc/dcmitype/StillImage" /><dc:title></dc:title></cc:Work></rdf:RDF></metadata><defs
     id="defs40" /><sodipodi:namedview
     pagecolor="#ffffff"
     bordercolor="#666666"
     borderopacity="1"
     objecttolerance="10"
     gridtolerance="10"
     guidetolerance="10"
     inkscape:pageopacity="0"
     inkscape:pageshadow="2"
     inkscape:window-width="1867"
     inkscape:window-height="1056"
     id="namedview38"
     showgrid="false"
     inkscape:zoom="0.78236133"
     inkscape:cx="42.179999"
     inkscape:cy="133"
     inkscape:window-x="53"
     inkscape:window-y="24"
     inkscape:window-maximized="1"
     inkscape:current-layer="Layer_1" /><g
     id="g22"
     transform="translate(0,-147)"
     style="fill:#ffffff"><path
       style="fill:#ffffff"
       inkscape:connector-curvature="0"
       id="path24"
       d="m 20.2,175.6 -20.2,0 0,-14.6 58.1,0 0,14.6 -20.2,0 0,66.7 -17.7,0 0,-66.7 z" /><path
       style="fill:#ffffff"
       inkscape:connector-curvature="0"
       id="path26"
       d="m 69.5,149.2 c 5.9,0 10.3,4.4 10.3,10.4 0,5.5 -4.4,9.9 -10.3,9.9 -5.6,0 -10,-4.4 -10,-9.9 0,-5.9 4.4,-10.4 10,-10.4 z m -8.5,27.5 17.5,0 0,65.5 -17.5,0 0,-65.5 z" /><path
       style="fill:#ffffff"
       inkscape:connector-curvature="0"
       id="path28"
       d="m 141.7,239.4 c 0,17.9 -12.5,26.7 -30,26.7 -16.1,0 -22.6,-4.5 -26.3,-8.9 l 9.9,-12.9 c 3.2,4.5 9.6,7.7 16.5,7.7 9,0 12.9,-3.4 12.9,-12.6 l 0,-3.4 -0.5,0 c -2.4,2.2 -7,3.7 -12.9,3.7 -13.6,0 -25.7,-6.7 -25.7,-30.3 0,-18.4 10.4,-33.4 31.9,-33.4 11.5,0 18.6,1.4 24.4,3.9 l 0,59.5 z m -24.5,-49.7 c -9.2,0 -14.4,6.4 -14.4,18.9 0,13.5 4.6,16.8 12.4,16.8 3.8,0 7,-1.2 9.2,-3.4 l 0,-31.2 c -2.4,-0.7 -4.4,-1.1 -7.2,-1.1 z" /><path
       style="fill:#ffffff"
       inkscape:connector-curvature="0"
       id="path30"
       d="m 148.2,209.8 c 0,-20.2 8.5,-34.2 30.2,-34.2 22.6,0 29.7,13.5 29.7,33.7 0,20.2 -8.6,34.2 -30.3,34.2 -22.5,0 -29.6,-13.4 -29.6,-33.7 z m 30.1,20 c 8.9,0 11.7,-6.5 11.7,-19.8 0,-13.6 -3.4,-20.8 -12.4,-20.8 -8,0 -11.5,6.5 -11.5,19.8 0.1,13.7 3.4,20.8 12.2,20.8 z" /><path
       style="fill:#ffffff"
       inkscape:connector-curvature="0"
       id="path32"
       d="m 273.2,178.8 c -2.8,-2.3 -6,-4.1 -9.5,-5.4 -3.5,-1.3 -7.2,-1.9 -11.1,-1.9 -2.9,0 -5.7,0.4 -8.4,1.1 -2.7,0.8 -5.2,1.8 -7.5,3.2 -2.3,1.4 -4.4,3 -6.3,5 -1.9,1.9 -3.6,4.1 -4.9,6.4 -1.4,2.4 -2.4,4.9 -3.2,7.6 -0.8,2.7 -1.1,5.5 -1.1,8.4 0,2.9 0.4,5.7 1.1,8.4 0.7,2.7 1.8,5.2 3.2,7.6 1.4,2.4 3,4.5 4.9,6.4 1.9,1.9 4,3.6 6.3,5 2.3,1.4 4.8,2.5 7.5,3.2 2.7,0.8 5.5,1.1 8.4,1.1 4,0 7.8,-0.7 11.4,-2.1 3.6,-1.4 6.8,-3.3 9.7,-5.7 0.6,-0.5 1.1,-0.9 1.6,-1.2 0.5,-0.3 0.9,-0.4 1.4,-0.4 0.4,0 0.9,0.1 1.3,0.4 0.4,0.3 0.9,0.7 1.5,1.2 0.6,0.6 1,1.1 1.3,1.6 0.3,0.5 0.4,0.9 0.4,1.4 0,0.8 -0.6,1.8 -1.7,2.8 -1.8,1.6 -3.7,3 -5.8,4.3 -2.1,1.3 -4.2,2.3 -6.5,3.2 -2.3,0.9 -4.6,1.6 -7.1,2 -2.5,0.5 -5,0.7 -7.5,0.7 -3.7,0 -7.3,-0.5 -10.7,-1.4 -3.4,-1 -6.6,-2.3 -9.6,-4 -3,-1.7 -5.7,-3.8 -8.1,-6.3 -2.4,-2.4 -4.5,-5.2 -6.3,-8.1 -1.7,-3 -3.1,-6.2 -4.1,-9.6 -1,-3.4 -1.4,-7 -1.4,-10.6 0,-3.6 0.5,-7.2 1.4,-10.6 0.9,-3.4 2.3,-6.6 4.1,-9.6 1.7,-3 3.8,-5.7 6.3,-8.1 2.4,-2.4 5.2,-4.5 8.1,-6.3 2.9,-1.8 6.2,-3.1 9.6,-4 3.4,-0.9 7,-1.4 10.7,-1.4 2.6,0 5.1,0.2 7.5,0.7 2.4,0.5 4.8,1.1 7.1,2 2.3,0.9 4.4,1.9 6.5,3.2 2.1,1.3 4,2.7 5.8,4.3 1.1,1 1.7,1.9 1.7,2.7 0,0.5 -0.2,0.9 -0.5,1.4 -0.3,0.4 -0.8,0.9 -1.4,1.5 -0.6,0.5 -1.1,0.9 -1.6,1.1 -0.5,0.2 -0.9,0.4 -1.3,0.4 -0.5,0 -0.9,-0.1 -1.4,-0.4 -0.5,-0.3 -1.1,-0.7 -1.8,-1.2 z" /><path
       style="fill:#ffffff"
       inkscape:connector-curvature="0"
       id="path34"
       d="m 309.3,172.2 -15.5,0 c -0.8,0 -1.4,-0.1 -1.9,-0.2 -0.5,-0.1 -0.9,-0.3 -1.2,-0.6 -0.3,-0.3 -0.5,-0.7 -0.6,-1.2 -0.1,-0.5 -0.2,-1.1 -0.2,-1.9 0,-0.8 0.1,-1.4 0.2,-1.9 0.1,-0.5 0.3,-0.9 0.6,-1.2 0.3,-0.3 0.7,-0.5 1.2,-0.6 0.5,-0.1 1.1,-0.2 1.9,-0.2 l 39.8,0 c 0.8,0 1.4,0.1 1.9,0.2 0.5,0.1 0.9,0.3 1.2,0.6 0.3,0.3 0.5,0.7 0.6,1.2 0.1,0.5 0.2,1.1 0.2,1.9 0,0.8 -0.1,1.4 -0.2,1.9 -0.1,0.5 -0.3,0.9 -0.6,1.2 -0.3,0.3 -0.7,0.5 -1.2,0.6 -0.5,0.1 -1.1,0.2 -1.9,0.2 l -15.5,0 0,65.6 c 0,0.9 -0.1,1.6 -0.2,2.1 -0.1,0.5 -0.4,1 -0.7,1.3 -0.3,0.3 -0.8,0.6 -1.3,0.7 -0.6,0.1 -1.3,0.2 -2.1,0.2 -0.9,0 -1.6,-0.1 -2.1,-0.2 -0.6,-0.1 -1,-0.4 -1.3,-0.7 -0.3,-0.3 -0.6,-0.8 -0.7,-1.3 -0.1,-0.5 -0.2,-1.3 -0.2,-2.1 l 0,-65.6 z" /><path
       style="fill:#ffffff"
       inkscape:connector-curvature="0"
       id="path36"
       d="m 354.6,165.3 c 0.2,-1 0.5,-1.6 0.9,-1.6 0.3,0 0.7,0.5 1.1,1.4 l 22.9,58 23,-58 c 0.4,-1 0.8,-1.4 1.1,-1.4 0.3,0 0.6,0.5 0.9,1.6 l 17.1,72.5 c 0.2,0.7 0.2,1.3 0.2,1.9 0,0.9 -0.3,1.6 -0.9,2 -0.6,0.4 -1.5,0.6 -2.9,0.6 -0.9,0 -1.7,-0.1 -2.3,-0.2 -0.6,-0.1 -1.1,-0.4 -1.5,-0.7 -0.4,-0.3 -0.8,-0.8 -1,-1.3 -0.3,-0.6 -0.5,-1.3 -0.7,-2.2 l -11.3,-48.6 -20.5,52.2 c -0.4,1 -0.8,1.5 -1.2,1.5 -0.4,0 -0.8,-0.5 -1.2,-1.5 l -20.5,-52.2 -11.3,48.6 c -0.2,0.9 -0.4,1.6 -0.7,2.2 -0.3,0.6 -0.6,1 -1,1.3 -0.4,0.3 -0.9,0.6 -1.5,0.7 -0.6,0.1 -1.4,0.2 -2.3,0.2 -1.3,0 -2.3,-0.2 -2.8,-0.6 -0.5,-0.4 -0.9,-1 -0.9,-1.9 0,-0.6 0.1,-1.2 0.2,-1.9 l 17.1,-72.6 z" /></g></svg>