<?xml version="1.0" ?><svg enable-background="new 0 0 32 32" version="1.1" viewBox="0 0 32 32" xml:space="preserve" xmlns="http://www.w3.org/2000/svg" xmlns:xlink="http://www.w3.org/1999/xlink"><g id="Layer_9_copy_3"><g><g><polygon points="2.5,0 2.5,24.5 16,32 29.5,24.5 29.5,0    "/><polygon fill="#999999" points="29.5,6.705 27.832,8.373 27.832,25.426 29.5,24.5    "/></g><polygon fill="#999999" points="2.5,6.705 2.5,24.5 4.168,25.426 4.168,8.373   "/><polygon fill="#FFFFFF" opacity="0.3" points="29.5,11.5 2.5,20.833 2.5,0 29.5,0   "/></g><path d="M24.085,10.295c0,0-0.161-1.214-0.656-1.748c-0.628-0.7-1.331-0.705-1.653-0.744   c-2.309-0.179-5.773-0.179-5.773-0.179h-0.008c0,0-3.463,0-5.772,0.179c-0.322,0.04-1.025,0.044-1.653,0.744   c-0.494,0.534-0.656,1.748-0.656,1.748S7.75,11.719,7.75,13.143v1.335c0,1.425,0.165,2.849,0.165,2.849s0.161,1.213,0.656,1.746   c0.628,0.7,1.452,0.679,1.819,0.752C11.71,19.96,16,20.002,16,20.002s3.467-0.006,5.776-0.183c0.322-0.041,1.025-0.045,1.653-0.746   c0.494-0.533,0.656-1.746,0.656-1.746s0.165-1.424,0.165-2.849v-1.335C24.25,11.719,24.085,10.295,24.085,10.295z M13.939,16.907   v-6.189l5.158,3.095L13.939,16.907z" fill="#FFFFFF"/></g><g id="Layer_7"/></svg>