<?xml version="1.0" encoding="UTF-8" standalone="no"?>
<!-- Created with Inkscape (http://www.inkscape.org/) -->

<svg
   xmlns:dc="http://purl.org/dc/elements/1.1/"
   xmlns:cc="http://creativecommons.org/ns#"
   xmlns:rdf="http://www.w3.org/1999/02/22-rdf-syntax-ns#"
   xmlns:svg="http://www.w3.org/2000/svg"
   xmlns="http://www.w3.org/2000/svg"
   xmlns:sodipodi="http://sodipodi.sourceforge.net/DTD/sodipodi-0.dtd"
   xmlns:inkscape="http://www.inkscape.org/namespaces/inkscape"
   width="90mm"
   height="25mm"
   viewBox="0 0 318.89773 88.58263"
   id="svg3551"
   version="1.1"
   inkscape:version="0.91 r13725"
   sodipodi:docname="logo.svg">
  <defs
     id="defs3553" />
  <sodipodi:namedview
     id="base"
     pagecolor="#ffffff"
     bordercolor="#666666"
     borderopacity="1.0"
     inkscape:pageopacity="0.0"
     inkscape:pageshadow="2"
     inkscape:zoom="3.959798"
     inkscape:cx="121.9593"
     inkscape:cy="-5.1150009"
     inkscape:document-units="px"
     inkscape:current-layer="layer1"
     showgrid="false"
     inkscape:window-width="1867"
     inkscape:window-height="1056"
     inkscape:window-x="53"
     inkscape:window-y="24"
     inkscape:window-maximized="1"
     showguides="false" />
  <metadata
     id="metadata3556">
    <rdf:RDF>
      <cc:Work
         rdf:about="">
        <dc:format>image/svg+xml</dc:format>
        <dc:type
           rdf:resource="http://purl.org/dc/dcmitype/StillImage" />
        <dc:title />
      </cc:Work>
    </rdf:RDF>
  </metadata>
  <g
     inkscape:label="Layer 1"
     inkscape:groupmode="layer"
     id="layer1"
     transform="translate(0,-963.7802)">
    <g
       id="g68"
       transform="matrix(1.5514853,0,0,-1.5514853,163.45212,1022.8576)"
       style="fill:#61717f;fill-opacity:1">
      <path
         d="m 0,0 c 1.612,0 3.048,0.367 4.307,1.103 1.257,0.736 2.242,1.751 2.951,3.044 0.708,1.294 1.063,2.756 1.063,4.387 0,1.631 -0.355,3.093 -1.063,4.387 -0.709,1.293 -1.694,2.304 -2.951,3.03 C 3.048,16.678 1.612,17.042 0,17.042 l -3.749,0 L -3.749,0 0,0 Z m -5.53,-1.569 c -0.196,0.195 -0.293,0.443 -0.293,0.745 l 0,18.69 c 0,0.301 0.097,0.549 0.293,0.744 0.195,0.196 0.442,0.293 0.744,0.293 l 4.786,0 c 2.002,0 3.792,-0.444 5.37,-1.33 C 6.948,16.687 8.176,15.46 9.053,13.892 9.93,12.322 10.368,10.537 10.368,8.534 10.368,6.531 9.93,4.741 9.053,3.163 8.176,1.586 6.948,0.354 5.37,-0.532 3.792,-1.418 2.002,-1.861 0,-1.861 l -4.786,0 c -0.302,0 -0.549,0.097 -0.744,0.292"
         style="fill:#61717f;fill-opacity:1;fill-rule:nonzero;stroke:none"
         id="path70"
         inkscape:connector-curvature="0" />
    </g>
    <g
       id="g72"
       transform="matrix(1.5514853,0,0,-1.5514853,198.39081,1010.0291)"
       style="fill:#61717f;fill-opacity:1">
      <path
         d="m 0,0 c 0.886,0 1.687,0.182 2.405,0.545 0.718,0.363 1.277,0.864 1.676,1.502 0.398,0.638 0.598,1.364 0.598,2.18 0,0.851 -0.2,1.613 -0.598,2.287 C 3.682,7.187 3.128,7.71 2.418,8.082 1.71,8.454 0.903,8.641 0,8.641 l -3.936,0 L -3.936,0 0,0 Z m 7.205,-9.253 c 0,-0.266 -0.099,-0.478 -0.293,-0.638 -0.196,-0.159 -0.452,-0.239 -0.771,-0.239 -0.212,0 -0.39,0.044 -0.533,0.133 -0.141,0.088 -0.265,0.222 -0.371,0.398 l -4.786,7.605 -0.451,0 -3.936,0 0,-7.099 c 0,-0.302 -0.097,-0.55 -0.293,-0.745 -0.194,-0.194 -0.443,-0.292 -0.744,-0.292 -0.301,0 -0.548,0.098 -0.744,0.292 -0.195,0.195 -0.293,0.443 -0.293,0.745 l 0,18.691 c 0,0.3 0.098,0.548 0.293,0.744 0.196,0.195 0.443,0.293 0.744,0.293 l 4.973,0 c 1.293,0 2.445,-0.271 3.456,-0.812 C 4.466,9.282 5.26,8.524 5.835,7.55 6.411,6.575 6.699,5.468 6.699,4.227 6.699,2.862 6.331,1.666 5.596,0.638 4.86,-0.391 3.863,-1.126 2.604,-1.569 l 4.361,-6.966 c 0.159,-0.266 0.24,-0.505 0.24,-0.718"
         style="fill:#61717f;fill-opacity:1;fill-rule:nonzero;stroke:none"
         id="path74"
         inkscape:connector-curvature="0" />
    </g>
    <g
       id="g76"
       transform="matrix(1.5514853,0,0,-1.5514853,220.23135,1034.9437)"
       style="fill:#61717f;fill-opacity:1">
      <path
         d="m 0,0 c -0.205,0.195 -0.307,0.443 -0.307,0.744 l 0,24.939 c 0,0.3 0.102,0.548 0.307,0.744 0.203,0.195 0.447,0.293 0.73,0.293 0.302,0 0.55,-0.098 0.745,-0.293 0.195,-0.196 0.293,-0.444 0.293,-0.744 l 0,-24.939 C 1.768,0.443 1.67,0.195 1.475,0 1.28,-0.195 1.032,-0.293 0.73,-0.293 0.447,-0.293 0.203,-0.195 0,0"
         style="fill:#61717f;fill-opacity:1;fill-rule:nonzero;stroke:none"
         id="path78"
         inkscape:connector-curvature="0" />
    </g>
    <g
       id="g80"
       transform="matrix(1.5514853,0,0,-1.5514853,246.32021,1011.267)"
       style="fill:#61717f;fill-opacity:1">
      <path
         d="M 0,0 C 0.904,0 1.711,0.199 2.419,0.599 3.128,0.997 3.682,1.551 4.081,2.26 4.479,2.969 4.68,3.775 4.68,4.679 4.68,5.601 4.479,6.421 4.081,7.139 3.682,7.856 3.128,8.419 2.419,8.827 1.711,9.234 0.904,9.438 0,9.438 l -4.28,0 L -4.28,0 0,0 Z m -6.062,-9.04 c -0.196,0.195 -0.292,0.443 -0.292,0.745 l 0,18.691 c 0,0.3 0.096,0.548 0.292,0.744 0.195,0.195 0.443,0.293 0.745,0.293 l 5.317,0 c 1.293,0 2.449,-0.289 3.47,-0.865 C 4.488,9.992 5.282,9.194 5.85,8.175 6.416,7.156 6.699,5.99 6.699,4.679 6.699,3.385 6.416,2.233 5.85,1.223 5.282,0.212 4.488,-0.576 3.47,-1.144 2.449,-1.711 1.293,-1.994 0,-1.994 l -4.28,0 0,-6.301 c 0,-0.302 -0.098,-0.55 -0.293,-0.745 -0.195,-0.194 -0.444,-0.292 -0.744,-0.292 -0.302,0 -0.55,0.098 -0.745,0.292"
         style="fill:#61717f;fill-opacity:1;fill-rule:nonzero;stroke:none"
         id="path82"
         inkscape:connector-curvature="0" />
    </g>
    <g
       id="g84"
       transform="matrix(1.5514853,0,0,-1.5514853,273.91662,1010.0291)"
       style="fill:#61717f;fill-opacity:1">
      <path
         d="m 0,0 c 0.886,0 1.687,0.182 2.405,0.545 0.718,0.363 1.277,0.864 1.676,1.502 0.398,0.638 0.598,1.364 0.598,2.18 0,0.851 -0.2,1.613 -0.598,2.287 C 3.682,7.187 3.128,7.71 2.418,8.082 1.71,8.454 0.903,8.641 0,8.641 l -3.936,0 L -3.936,0 0,0 Z m 7.205,-9.253 c 0,-0.266 -0.099,-0.478 -0.293,-0.638 -0.196,-0.159 -0.452,-0.239 -0.771,-0.239 -0.212,0 -0.39,0.044 -0.533,0.133 -0.141,0.088 -0.265,0.222 -0.371,0.398 l -4.786,7.605 -0.451,0 -3.936,0 0,-7.099 c 0,-0.302 -0.097,-0.55 -0.293,-0.745 -0.194,-0.194 -0.443,-0.292 -0.744,-0.292 -0.301,0 -0.548,0.098 -0.744,0.292 -0.195,0.195 -0.293,0.443 -0.293,0.745 l 0,18.691 c 0,0.3 0.098,0.548 0.293,0.744 0.196,0.195 0.443,0.293 0.744,0.293 l 4.973,0 c 1.293,0 2.445,-0.271 3.456,-0.812 C 4.466,9.282 5.26,8.524 5.835,7.55 6.411,6.575 6.699,5.468 6.699,4.227 6.699,2.862 6.331,1.666 5.596,0.638 4.86,-0.391 3.863,-1.126 2.604,-1.569 l 4.361,-6.966 c 0.159,-0.266 0.24,-0.505 0.24,-0.718"
         style="fill:#61717f;fill-opacity:1;fill-rule:nonzero;stroke:none"
         id="path86"
         inkscape:connector-curvature="0" />
    </g>
    <g
       id="g88"
       transform="matrix(1.5514853,0,0,-1.5514853,316.15365,1024.1789)"
       style="fill:#61717f;fill-opacity:1">
      <path
         d="m 0,0 c 0,-0.283 -0.089,-0.522 -0.266,-0.718 -0.177,-0.194 -0.417,-0.292 -0.717,-0.292 -0.355,0 -0.621,0.124 -0.798,0.372 l -6.354,8.801 -6.487,-8.853 c -0.178,-0.213 -0.426,-0.32 -0.745,-0.32 -0.301,0 -0.541,0.093 -0.718,0.28 -0.178,0.186 -0.266,0.412 -0.266,0.677 0,0.266 0.08,0.505 0.24,0.718 l 6.566,8.933 -6.142,8.535 c -0.141,0.229 -0.211,0.442 -0.211,0.638 0,0.265 0.087,0.496 0.265,0.691 0.177,0.195 0.407,0.293 0.692,0.293 0.353,0 0.62,-0.125 0.796,-0.373 l 6.036,-8.348 6.116,8.348 c 0.194,0.248 0.461,0.373 0.797,0.373 0.283,0 0.513,-0.103 0.691,-0.307 0.177,-0.203 0.266,-0.438 0.266,-0.704 0,-0.23 -0.063,-0.434 -0.186,-0.611 L -6.7,9.625 -0.239,0.665 C -0.08,0.452 0,0.23 0,0"
         style="fill:#61717f;fill-opacity:1;fill-rule:nonzero;stroke:none"
         id="path90"
         inkscape:connector-curvature="0" />
    </g>
    <g
       id="g92"
       transform="matrix(1.25,0,0,-1.25,36.50746,974.95154)">
      <path
         d="m 0,0 0,1.04 57.05,4.33 c 1.76,0.13 3.28,-1.24 3.28,-2.99 l 0,-7.02"
         style="fill:none;stroke:#61717f;stroke-width:2;stroke-linecap:round;stroke-linejoin:round;stroke-miterlimit:10;stroke-dasharray:none;stroke-opacity:1"
         id="path94"
         inkscape:connector-curvature="0" />
    </g>
    <g
       id="g96"
       transform="matrix(1.25,0,0,-1.25,2.1618385,989.56941)">
      <path
         d="m 0,0 0,11.831 c 0.043,1.355 0.827,2.725 3.76,2.725 l 20.648,0 c 0.976,0 1.868,-0.537 2.304,-1.387 L 29.649,7.45"
         style="fill:none;stroke:#61717f;stroke-width:2;stroke-linecap:round;stroke-linejoin:round;stroke-miterlimit:10;stroke-dasharray:none;stroke-opacity:1"
         id="path98"
         inkscape:connector-curvature="0" />
    </g>
    <g
       id="g100"
       transform="matrix(1.25,0,0,-1.25,79.48234,1049.8552)">
      <path
         d="m 0,0 c 0.403,-0.477 0.996,-0.752 1.621,-0.752 l 25.11,0 c 2.466,0 4.466,2.192 4.466,4.898 l 0,46.236 c 0,2.705 -2,4.898 -4.466,4.898 l -53.547308,0 -30.574692,0 c -2.465,0 -4.465,-2.193 -4.465,-4.898 l 0,-46.236 c 0,-2.706 2,-4.898 4.465,-4.898 l 23.893,0.056 c 1.173,0.003 2.121,0.957 2.118,2.13 l -0.103,35.208 c -0.003,1.174 0.948,2.129 2.123,2.129 3.499,0 6.999,10e-4 10.498,0 4.393,-0.003 9.748,-0.503 12.951,-3.891 1.567,-1.658 2.165,-3.87 1.985,-6.115 0,0 -0.2649323,-7.775188 -8.693048,-8.94492 C -13.808661,19.654974 -15.160909,19.621468 -16.698,19.76 Z"
         style="fill:none;stroke:#61717f;stroke-width:2;stroke-linecap:round;stroke-linejoin:round;stroke-miterlimit:10;stroke-dasharray:none;stroke-opacity:1"
         id="path102"
         inkscape:connector-curvature="0"
         sodipodi:nodetypes="cssssscsssccccscccscc" />
    </g>
    <g
       id="g104"
       transform="matrix(1.25,0,0,-1.25,59.06972,1050.7182)">
      <path
         d="M 0,0 5.5955781,6.516332 17.01,19.809"
         style="fill:none;stroke:#61717f;stroke-width:2;stroke-linecap:round;stroke-linejoin:round;stroke-miterlimit:10;stroke-dasharray:none;stroke-opacity:1"
         id="path106"
         inkscape:connector-curvature="0"
         sodipodi:nodetypes="ccc" />
    </g>
  </g>
</svg>
