<?xml version="1.0" encoding="UTF-8"?>
<!DOCTYPE svg PUBLIC "-//W3C//DTD SVG 1.0//EN" "http://www.w3.org/TR/2001/REC-SVG-20010904/DTD/svg10.dtd">
<!-- Creator: CorelDRAW X8 -->
<svg xmlns="http://www.w3.org/2000/svg" xml:space="preserve" width="24.0591in" height="7.94063in" version="1.0" style="shape-rendering:geometricPrecision; text-rendering:geometricPrecision; image-rendering:optimizeQuality; fill-rule:evenodd; clip-rule:evenodd"
viewBox="0 0 2039 673"
 xmlns:xlink="http://www.w3.org/1999/xlink">
 <defs>
  <style type="text/css">
   <![CDATA[
    .fil1 {fill:#FF5112}
    .fil2 {fill:white}
    .fil0 {fill:white}
    .fil3 {fill:white;fill-rule:nonzero}
   ]]>
  </style>
 </defs>
 <g id="Layer_x0020_1">
  <metadata id="CorelCorpID_0Corel-Layer"/>
  <path class="fil0" d="M292 0l-292 0 0 504 292 169 0 -382 0 -81 -153 0 75 81 0 246c0,0 -133,-77 -133,-77 0,0 0,-378 0,-378l211 0 0 -82z"/>
  <path class="fil1" d="M338 0l292 0 0 504 -292 169 0 -382 0 -81 153 0 -75 81 0 246c0,0 133,-77 133,-77 0,0 0,-378 0,-378l-211 0 0 -82z"/>
  <g id="_2347822001024">
   <path class="fil2" d="M1035 178l38 -45 -5 -5c-32,-32 -76,-50 -121,-50 -91,0 -170,70 -170,163 0,96 74,170 169,170 49,0 96,-21 129,-57l2 -2 0 -128 -120 0 25 59 37 0 0 44 -7 5c-19,13 -42,20 -65,20 -59,0 -112,-44 -112,-106 0,-64 48,-108 111,-108 31,0 62,11 83,34l6 6zm384 -91l-58 0 0 192c0,53 -37,73 -85,73 -48,0 -84,-20 -84,-73l0 -192 -59 0 0 192c0,88 59,132 143,132 84,0 143,-44 143,-132l0 -192zm129 0l-58 0 0 317 226 0 0 -59 -168 0 0 -258zm223 317l119 0c42,0 73,-11 102,-42 29,-31 47,-75 47,-118 0,-84 -63,-157 -150,-157l-165 0 26 59 21 0 0 258zm58 -258l60 0c58,0 90,47 90,102 0,52 -34,97 -89,97l-61 0 0 -199z"/>
   <path class="fil3" d="M927 572c-4,7 -9,13 -16,17 -7,4 -16,5 -26,5 -16,0 -29,-5 -39,-15 -10,-10 -15,-23 -15,-40 0,-18 5,-32 15,-41 10,-10 24,-15 41,-15 13,0 24,3 33,10 9,6 14,15 15,26l-12 0c-1,-8 -5,-15 -12,-19 -6,-5 -14,-7 -25,-7 -13,0 -24,4 -32,12 -8,8 -12,19 -12,34 0,13 4,25 12,33 8,8 18,12 32,12 11,0 20,-3 28,-10 8,-6 12,-14 12,-23l0 -5 -34 0 0 -9 44 0 0 55 -8 0 -1 -20zm196 -23l48 0 -24 -55 -24 55zm-31 43l49 -107 12 0 49 107 -11 0 -15 -33 -58 0 -15 33 -11 0zm269 0l0 -107 16 0 45 97 46 -97 15 0 0 107 -10 0 0 -97 -45 97 -12 0 -46 -97 1 97 -10 0zm292 0l0 -107 82 0 0 10 -71 0 0 37 66 0 0 10 -66 0 0 40 71 0 0 10 -82 0zm242 -35l11 0 0 0c0,8 3,15 9,20 6,5 15,7 25,7 10,0 18,-2 24,-6 6,-4 9,-9 9,-16 0,-5 -2,-9 -5,-11 -4,-3 -11,-5 -22,-7l-22 -4c-9,-2 -15,-5 -19,-9 -5,-4 -7,-10 -7,-18 0,-9 4,-16 11,-22 8,-6 17,-8 30,-8 13,0 23,2 30,8 7,6 11,14 12,24l-11 0c-1,-7 -4,-13 -9,-17 -5,-4 -12,-6 -22,-6 -9,0 -16,2 -22,6 -5,3 -8,8 -8,15 0,5 2,9 6,11 4,3 11,5 21,7l20 3c10,2 17,5 21,9 5,5 7,11 7,19 0,10 -4,18 -11,24 -8,6 -19,8 -32,8 -14,0 -25,-3 -34,-9 -8,-7 -12,-16 -12,-27l0 -1z"/>
  </g>
 </g>
</svg>
